<svg width="20" height="21" viewBox="0 0 20 21" fill="none" xmlns="http://www.w3.org/2000/svg">
<path id="Vector" d="M19.3424 8.97175L19.2423 8.54719H10.0145V12.4528H15.528C14.9556 15.171 12.2993 16.6018 10.1296 16.6018C8.55091 16.6018 6.88677 15.9378 5.78531 14.8704C5.20418 14.2983 4.74161 13.6171 4.42407 12.866C4.10653 12.1148 3.94026 11.3084 3.93479 10.4929C3.93479 8.84779 4.67411 7.20225 5.7499 6.11982C6.82568 5.0374 8.45042 4.43178 10.0659 4.43178C11.9159 4.43178 13.2418 5.41415 13.7377 5.86217L16.513 3.10144C15.6989 2.38602 13.4623 0.583313 9.97643 0.583313C7.28698 0.583313 4.7082 1.6135 2.82315 3.49235C0.96289 5.34243 0 8.01771 0 10.5C0 12.9822 0.911094 15.5238 2.7138 17.3885C4.64003 19.3772 7.36799 20.4166 10.177 20.4166C12.7327 20.4166 15.1552 19.4152 16.8818 17.5984C18.5791 15.8098 19.457 13.3351 19.457 10.7408C19.457 9.64865 19.3472 9.00008 19.3424 8.97175Z" fill="#242424"/>
</svg>
